<?xml version="1.0" encoding="UTF-8"?>
<svg version="1.1" xmlns="http://www.w3.org/2000/svg" width="225" height="225">
<path d="M0 0 C74.25 0 148.5 0 225 0 C225 74.25 225 148.5 225 225 C150.75 225 76.5 225 0 225 C0 150.75 0 76.5 0 0 Z " fill="#FEFEFE" transform="translate(0,0)"/>
<path d="M0 0 C0.63405762 0.20399414 1.26811523 0.40798828 1.92138672 0.61816406 C26.5111781 8.69137155 47.43210694 25.23747933 60 48 C67 61.87351256 67 61.87351256 67 66 C66.39414063 66.00257812 65.78828125 66.00515625 65.1640625 66.0078125 C56.77928877 66.39480206 50.76788131 69.16323604 44.86328125 75.17578125 C42.45720068 78.03550363 40.21154099 80.98982462 38 84 C37.21036865 85.06420166 37.21036865 85.06420166 36.40478516 86.14990234 C33.40494236 90.19346339 30.42173708 94.24881939 27.44921875 98.3125 C23.06827576 104.28794618 18.56779121 110.1662292 14 116 C12.96746094 117.34964844 12.96746094 117.34964844 11.9140625 118.7265625 C9.36113092 121.75882001 7.69032096 122.89379678 3.75 123.5 C-2.35106111 122.68652518 -6.05746368 118.39760551 -9.74609375 113.65234375 C-10.65101517 112.41974096 -11.547804 111.18113718 -12.4375 109.9375 C-13.47037651 108.52923035 -14.50428827 107.12171958 -15.5390625 105.71484375 C-16.08981445 104.96187012 -16.64056641 104.20889648 -17.20800781 103.43310547 C-20.53100018 98.92126052 -23.92227014 94.46140869 -27.3125 90 C-27.96984131 89.12851318 -28.62718262 88.25702637 -29.30444336 87.35913086 C-38.60569871 74.63337449 -38.60569871 74.63337449 -52 67 C-59.14684687 66.29570653 -65.17825385 66.53432324 -71 71 C-78.42411963 77.91983981 -84.2219226 86.48793871 -90.23583984 94.61816406 C-93.5966264 99.1556445 -96.97875926 103.67650744 -100.375 108.1875 C-101.04088135 109.0844458 -101.7067627 109.9813916 -102.39282227 110.90551758 C-111.17897787 122.54863646 -111.17897787 122.54863646 -117.125 123.5 C-120.38315721 122.93336396 -121.6219704 122.26296858 -124 120 C-126.58738457 112.18682526 -126.35504006 103.33878348 -126.3125 95.1875 C-126.30686035 94.04821045 -126.3012207 92.9089209 -126.29541016 91.73510742 C-125.91729947 65.43395284 -115.25248218 43.47712812 -97 25 C-96.43023437 24.35804687 -95.86046875 23.71609375 -95.2734375 23.0546875 C-72.99708256 -1.50642179 -30.84299723 -10.06654879 0 0 Z " fill="#6DABE4" transform="translate(140,17)"/>
<path d="M0 0 C5.76103458 3.02792966 8.81292825 7.36861339 12.5 12.625 C13.72833725 14.33486658 14.95886683 16.04316002 16.19140625 17.75 C17.13137451 19.05517578 17.13137451 19.05517578 18.09033203 20.38671875 C21.1203741 24.53317365 24.27120659 28.58213784 27.4375 32.625 C27.99179688 33.33350098 28.54609375 34.04200195 29.1171875 34.77197266 C30.19318573 36.14567664 31.27143389 37.5176216 32.35205078 38.88769531 C33.52117812 40.38625675 34.67423952 41.8974148 35.81591797 43.41699219 C36.72108154 44.61437012 36.72108154 44.61437012 37.64453125 45.8359375 C38.45627808 46.92334229 38.45627808 46.92334229 39.28442383 48.03271484 C42.97264273 52.26206847 48.27873871 55.53579358 53.91015625 56.23828125 C61.28996378 56.49275737 67.94686402 54.77557816 73.4921875 49.734375 C76.09227196 46.89939194 78.52157272 43.97654331 80.875 40.9375 C81.33624268 40.34678711 81.79748535 39.75607422 82.27270508 39.14746094 C86.47868535 33.73258029 90.58256745 28.24161684 94.6875 22.75 C109.62224744 2.77966036 109.62224744 2.77966036 114 0 C117.5853421 -0.3841438 119.98714273 -0.55384451 123.18774414 1.19628906 C125 3 125 3 125.50170898 5.39746094 C125.49985596 6.33364258 125.49800293 7.26982422 125.49609375 8.234375 C125.49931641 9.27577637 125.50253906 10.31717773 125.50585938 11.39013672 C125.47202148 13.05326904 125.47202148 13.05326904 125.4375 14.75 C125.42138672 15.8858252 125.40527344 17.02165039 125.38867188 18.19189453 C124.78553555 43.99068304 114.72309235 65.45697811 97 84 C96.39929688 84.67546875 95.79859375 85.3509375 95.1796875 86.046875 C82.14370457 100.15508164 63.55756555 108.25390758 45 112 C44.2471875 112.17055908 43.494375 112.34111816 42.71875 112.5168457 C18.31905611 116.85296228 -6.69938222 111.38063234 -27.375 98.125 C-32.99818423 94.18037823 -38.04157256 89.74171295 -43 85 C-43.61359375 84.44957031 -44.2271875 83.89914063 -44.859375 83.33203125 C-51.79316201 76.89124286 -57.52430143 68.29987139 -62 60 C-62 59.01 -62 58.02 -62 57 C-61.29875 56.79246094 -60.5975 56.58492187 -59.875 56.37109375 C-58.92625 56.06300781 -57.9775 55.75492188 -57 55.4375 C-56.071875 55.14746094 -55.14375 54.85742188 -54.1875 54.55859375 C-46.53589498 50.81718394 -41.58900022 44.5881561 -36.875 37.6875 C-35.75944217 36.09819853 -34.64085056 34.51102302 -33.51953125 32.92578125 C-32.9467041 32.1157666 -32.37387695 31.30575195 -31.78369141 30.47119141 C-28.27275766 25.60701519 -24.55174311 20.90581271 -20.84521484 16.19018555 C-20.29945801 15.49578369 -19.75370117 14.80138184 -19.19140625 14.0859375 C-18.6617627 13.41401367 -18.13211914 12.74208984 -17.58642578 12.04980469 C-15.4542841 9.29488601 -13.40834692 6.47914567 -11.37475586 3.65087891 C-7.99339336 -0.40963845 -5.00604352 -0.50908917 0 0 Z " fill="#709C49" transform="translate(86,98)"/>
<path d="M0 0 C2.9091534 1.26484931 4.46015566 2.25450067 6.3125 4.8125 C7.24508259 7.77980823 7.37237901 9.89684156 7 13 C3.84210526 18.57894737 3.84210526 18.57894737 1 20 C-2.05920574 20.42071592 -4.9467746 20.48514117 -8 20 C-10.75569447 17.81840855 -12.43588747 16.12822506 -14 13 C-14.4136968 8.34591099 -13.81070393 5.74760524 -11 2 C-7.28957469 -0.47361688 -4.30137325 -0.54607278 0 0 Z " fill="#FAFCFE" transform="translate(149,56)"/>
</svg>
